{
	"asset":{
		"generator":"Khronos glTF Blender I/O v3.6.27",
		"version":"2.0"
	},
	"scene":0,
	"scenes":[
		{
			"name":"Items",
			"nodes":[
				0
			]
		}
	],
	"nodes":[
		{
			"mesh":0,
			"name":"BooksStack"
		}
	],
	"meshes":[
		{
			"name":"BooksStack",
			"primitives":[
				{
					"attributes":{
						"POSITION":0,
						"NORMAL":1,
						"TEXCOORD_0":2
					},
					"indices":3
				}
			]
		}
	],
	"accessors":[
		{
			"bufferView":0,
			"componentType":5126,
			"count":288,
			"max":[
				0.13012374937534332,
				0.09919505566358566,
				0.1409110426902771
			],
			"min":[
				-0.12977814674377441,
				-0.014749350026249886,
				-0.1411246806383133
			],
			"type":"VEC3"
		},
		{
			"bufferView":1,
			"componentType":5126,
			"count":288,
			"type":"VEC3"
		},
		{
			"bufferView":2,
			"componentType":5126,
			"count":288,
			"type":"VEC2"
		},
		{
			"bufferView":3,
			"componentType":5123,
			"count":528,
			"type":"SCALAR"
		}
	],
	"bufferViews":[
		{
			"buffer":0,
			"byteLength":3456,
			"byteOffset":0,
			"target":34962
		},
		{
			"buffer":0,
			"byteLength":3456,
			"byteOffset":3456,
			"target":34962
		},
		{
			"buffer":0,
			"byteLength":2304,
			"byteOffset":6912,
			"target":34962
		},
		{
			"buffer":0,
			"byteLength":1056,
			"byteOffset":9216,
			"target":34963
		}
	],
	"buffers":[
		{
			"byteLength":10272,
			"uri":"data:application/octet-stream;base64,"
		}
	]
}
