{
	"asset":{
		"generator":"Khronos glTF Blender I/O v3.6.27",
		"version":"2.0"
	},
	"scene":0,
	"scenes":[
		{
			"name":"Items",
			"nodes":[
				0
			]
		}
	],
	"nodes":[
		{
			"mesh":0,
			"name":"Cup"
		}
	],
	"meshes":[
		{
			"name":"Cup",
			"primitives":[
				{
					"attributes":{
						"POSITION":0,
						"NORMAL":1,
						"TEXCOORD_0":2
					},
					"indices":3
				}
			]
		}
	],
	"accessors":[
		{
			"bufferView":0,
			"componentType":5126,
			"count":584,
			"max":[
				0.058617062866687775,
				0.05704483017325401,
				0.05861710011959076
			],
			"min":[
				-0.058617062866687775,
				-0.05704483389854431,
				-0.07775948196649551
			],
			"type":"VEC3"
		},
		{
			"bufferView":1,
			"componentType":5126,
			"count":584,
			"type":"VEC3"
		},
		{
			"bufferView":2,
			"componentType":5126,
			"count":584,
			"type":"VEC2"
		},
		{
			"bufferView":3,
			"componentType":5123,
			"count":1236,
			"type":"SCALAR"
		}
	],
	"bufferViews":[
		{
			"buffer":0,
			"byteLength":7008,
			"byteOffset":0,
			"target":34962
		},
		{
			"buffer":0,
			"byteLength":7008,
			"byteOffset":7008,
			"target":34962
		},
		{
			"buffer":0,
			"byteLength":4672,
			"byteOffset":14016,
			"target":34962
		},
		{
			"buffer":0,
			"byteLength":2472,
			"byteOffset":18688,
			"target":34963
		}
	],
	"buffers":[
		{
			"byteLength":21160,
			"uri":"data:application/octet-stream;base64,"
		}
	]
}
