{
	"asset":{
		"generator":"Khronos glTF Blender I/O v3.6.27",
		"version":"2.0"
	},
	"scene":0,
	"scenes":[
		{
			"name":"Items",
			"nodes":[
				0
			]
		}
	],
	"nodes":[
		{
			"mesh":0,
			"name":"Flask"
		}
	],
	"meshes":[
		{
			"name":"Flask",
			"primitives":[
				{
					"attributes":{
						"POSITION":0,
						"NORMAL":1,
						"TEXCOORD_0":2
					},
					"indices":3
				}
			]
		}
	],
	"accessors":[
		{
			"bufferView":0,
			"componentType":5126,
			"count":832,
			"max":[
				0.04906187579035759,
				0.026602135971188545,
				0.04906180873513222
			],
			"min":[
				-0.04906187579035759,
				-0.12742222845554352,
				-0.049061939120292664
			],
			"type":"VEC3"
		},
		{
			"bufferView":1,
			"componentType":5126,
			"count":832,
			"type":"VEC3"
		},
		{
			"bufferView":2,
			"componentType":5126,
			"count":832,
			"type":"VEC2"
		},
		{
			"bufferView":3,
			"componentType":5123,
			"count":1332,
			"type":"SCALAR"
		}
	],
	"bufferViews":[
		{
			"buffer":0,
			"byteLength":9984,
			"byteOffset":0,
			"target":34962
		},
		{
			"buffer":0,
			"byteLength":9984,
			"byteOffset":9984,
			"target":34962
		},
		{
			"buffer":0,
			"byteLength":6656,
			"byteOffset":19968,
			"target":34962
		},
		{
			"buffer":0,
			"byteLength":2664,
			"byteOffset":26624,
			"target":34963
		}
	],
	"buffers":[
		{
			"byteLength":29288,
			"uri":"data:application/octet-stream;base64,"
		}
	]
}
