{
	"asset":{
		"generator":"Khronos glTF Blender I/O v3.6.27",
		"version":"2.0"
	},
	"scene":0,
	"scenes":[
		{
			"name":"Items",
			"nodes":[
				0
			]
		}
	],
	"nodes":[
		{
			"mesh":0,
			"name":"Printer3D"
		}
	],
	"meshes":[
		{
			"name":"Printer3D",
			"primitives":[
				{
					"attributes":{
						"POSITION":0,
						"NORMAL":1,
						"TEXCOORD_0":2
					},
					"indices":3
				}
			]
		}
	],
	"accessors":[
		{
			"bufferView":0,
			"componentType":5126,
			"count":1108,
			"max":[
				0.18560980260372162,
				0.399379700422287,
				0.25075873732566833
			],
			"min":[
				-0.18560980260372162,
				-0.054788634181022644,
				-0.18560929596424103
			],
			"type":"VEC3"
		},
		{
			"bufferView":1,
			"componentType":5126,
			"count":1108,
			"type":"VEC3"
		},
		{
			"bufferView":2,
			"componentType":5126,
			"count":1108,
			"type":"VEC2"
		},
		{
			"bufferView":3,
			"componentType":5123,
			"count":2100,
			"type":"SCALAR"
		}
	],
	"bufferViews":[
		{
			"buffer":0,
			"byteLength":13296,
			"byteOffset":0,
			"target":34962
		},
		{
			"buffer":0,
			"byteLength":13296,
			"byteOffset":13296,
			"target":34962
		},
		{
			"buffer":0,
			"byteLength":8864,
			"byteOffset":26592,
			"target":34962
		},
		{
			"buffer":0,
			"byteLength":4200,
			"byteOffset":35456,
			"target":34963
		}
	],
	"buffers":[
		{
			"byteLength":39656,
			"uri":"data:application/octet-stream;base64,"
		}
	]
}
