{
	"asset":{
		"generator":"Khronos glTF Blender I/O v3.6.27",
		"version":"2.0"
	},
	"scene":0,
	"scenes":[
		{
			"name":"Items",
			"nodes":[
				0
			]
		}
	],
	"nodes":[
		{
			"mesh":0,
			"name":"Table1",
			"rotation":[
				0,
				0.7071066498756409,
				0,
				0.70710688829422
			]
		}
	],
	"materials":[
		{
			"doubleSided":true,
			"name":"Material.001",
			"pbrMetallicRoughness":{
				"baseColorFactor":[
					0.800000011920929,
					0.800000011920929,
					0.800000011920929,
					1
				],
				"metallicFactor":0,
				"roughnessFactor":0.5
			}
		},
		{
			"doubleSided":true,
			"name":"RedWood.001",
			"pbrMetallicRoughness":{
				"baseColorFactor":[
					0.8000000715255737,
					0.025905977934598923,
					0.025905977934598923,
					1
				],
				"metallicFactor":0,
				"roughnessFactor":0.5
			}
		}
	],
	"meshes":[
		{
			"name":"Table1",
			"primitives":[
				{
					"attributes":{
						"POSITION":0,
						"NORMAL":1,
						"TEXCOORD_0":2
					},
					"indices":3,
					"material":0
				},
				{
					"attributes":{
						"POSITION":4,
						"NORMAL":5,
						"TEXCOORD_0":6
					},
					"indices":7,
					"material":1
				}
			]
		}
	],
	"accessors":[
		{
			"bufferView":0,
			"componentType":5126,
			"count":2448,
			"max":[
				1.3646525144577026,
				0.10294489562511444,
				1.3646525144577026
			],
			"min":[
				-1.3646525144577026,
				-0.999232828617096,
				-1.3646525144577026
			],
			"type":"VEC3"
		},
		{
			"bufferView":1,
			"componentType":5126,
			"count":2448,
			"type":"VEC3"
		},
		{
			"bufferView":2,
			"componentType":5126,
			"count":2448,
			"type":"VEC2"
		},
		{
			"bufferView":3,
			"componentType":5123,
			"count":4752,
			"type":"SCALAR"
		},
		{
			"bufferView":4,
			"componentType":5126,
			"count":386,
			"max":[
				0.5187061429023743,
				0.037596747279167175,
				0.5187146663665771
			],
			"min":[
				-0.5187014937400818,
				-1.036869764328003,
				-0.5186929106712341
			],
			"type":"VEC3"
		},
		{
			"bufferView":5,
			"componentType":5126,
			"count":386,
			"type":"VEC3"
		},
		{
			"bufferView":6,
			"componentType":5126,
			"count":386,
			"type":"VEC2"
		},
		{
			"bufferView":7,
			"componentType":5123,
			"count":756,
			"type":"SCALAR"
		}
	],
	"bufferViews":[
		{
			"buffer":0,
			"byteLength":29376,
			"byteOffset":0,
			"target":34962
		},
		{
			"buffer":0,
			"byteLength":29376,
			"byteOffset":29376,
			"target":34962
		},
		{
			"buffer":0,
			"byteLength":19584,
			"byteOffset":58752,
			"target":34962
		},
		{
			"buffer":0,
			"byteLength":9504,
			"byteOffset":78336,
			"target":34963
		},
		{
			"buffer":0,
			"byteLength":4632,
			"byteOffset":87840,
			"target":34962
		},
		{
			"buffer":0,
			"byteLength":4632,
			"byteOffset":92472,
			"target":34962
		},
		{
			"buffer":0,
			"byteLength":3088,
			"byteOffset":97104,
			"target":34962
		},
		{
			"buffer":0,
			"byteLength":1512,
			"byteOffset":100192,
			"target":34963
		}
	],
	"buffers":[
		{
			"byteLength":101704,
			"uri":"data:application/octet-stream;base64,"
		}
	]
}
